<svg width="2278" height="346" viewBox="0 0 2278 346" fill="none" xmlns="http://www.w3.org/2000/svg">
<rect x="-6" y="6" width="86" height="242" transform="matrix(-1 0 0 1 1450 67)" stroke="black" stroke-width="12"/>
<rect x="-6" y="6" width="86" height="242" transform="matrix(-1 0 0 1 1568 67)" stroke="black" stroke-width="12"/>
<rect x="-6" y="6" width="86" height="242" transform="matrix(-1 0 0 1 1687 67)" stroke="black" stroke-width="12"/>
<rect x="-6" y="6" width="86" height="242" transform="matrix(-1 0 0 1 1687 67)" stroke="black" stroke-width="12"/>
<path d="M1404.48 31L1401.57 63L1422.5 63L1419.96 31L1404.48 31Z" stroke="black" stroke-width="12"/>
<path d="M1522.48 31L1519.57 63L1540.5 63L1537.96 31L1522.48 31Z" stroke="black" stroke-width="12"/>
<path d="M1641.48 31L1638.57 63L1659.5 63L1656.96 31L1641.48 31Z" stroke="black" stroke-width="12"/>
<path d="M1641.48 31L1638.57 63L1659.5 63L1656.96 31L1641.48 31Z" stroke="black" stroke-width="12"/>
<rect x="1929" y="164" width="327" height="173" stroke="black" stroke-width="12"/>
<rect x="1911" y="132" width="361" height="20" stroke="black" stroke-width="12"/>
<mask id="path-11-inside-1_111_34" fill="white">
<path d="M2100 126.5C2100 115.272 2097.79 104.154 2093.49 93.7806C2089.19 83.4072 2082.9 73.9818 2074.96 66.0424C2067.02 58.103 2057.59 51.8051 2047.22 47.5083C2036.85 43.2115 2025.73 41 2014.5 41C2003.27 41 1992.15 43.2115 1981.78 47.5083C1971.41 51.8051 1961.98 58.103 1954.04 66.0424C1946.1 73.9818 1939.81 83.4072 1935.51 93.7806C1931.21 104.154 1929 115.272 1929 126.5L2014.5 126.5H2100Z"/>
</mask>
<path d="M2100 126.5C2100 115.272 2097.79 104.154 2093.49 93.7806C2089.19 83.4072 2082.9 73.9818 2074.96 66.0424C2067.02 58.103 2057.59 51.8051 2047.22 47.5083C2036.85 43.2115 2025.73 41 2014.5 41C2003.27 41 1992.15 43.2115 1981.78 47.5083C1971.41 51.8051 1961.98 58.103 1954.04 66.0424C1946.1 73.9818 1939.81 83.4072 1935.51 93.7806C1931.21 104.154 1929 115.272 1929 126.5L2014.5 126.5H2100Z" stroke="black" stroke-width="24" mask="url(#path-11-inside-1_111_34)"/>
<mask id="path-12-inside-2_111_34" fill="white">
<path d="M2031 48C2031 44.9796 2030.59 41.9888 2029.78 39.1983C2028.98 36.4078 2027.8 33.8723 2026.31 31.7365C2024.83 29.6008 2023.06 27.9066 2021.12 26.7508C2019.18 25.5949 2017.1 25 2015 25C2012.9 25 2010.82 25.5949 2008.88 26.7508C2006.94 27.9066 2005.17 29.6008 2003.69 31.7365C2002.2 33.8723 2001.02 36.4078 2000.22 39.1983C1999.41 41.9888 1999 44.9796 1999 48L2015 48H2031Z"/>
</mask>
<path d="M2031 48C2031 44.9796 2030.59 41.9888 2029.78 39.1983C2028.98 36.4078 2027.8 33.8723 2026.31 31.7365C2024.83 29.6008 2023.06 27.9066 2021.12 26.7508C2019.18 25.5949 2017.1 25 2015 25C2012.9 25 2010.82 25.5949 2008.88 26.7508C2006.94 27.9066 2005.17 29.6008 2003.69 31.7365C2002.2 33.8723 2001.02 36.4078 2000.22 39.1983C1999.41 41.9888 1999 44.9796 1999 48L2015 48H2031Z" stroke="black" stroke-width="24" mask="url(#path-12-inside-2_111_34)"/>
<mask id="path-13-inside-3_111_34" fill="white">
<path d="M2196 48C2196 44.9796 2195.59 41.9888 2194.78 39.1983C2193.98 36.4078 2192.8 33.8723 2191.31 31.7365C2189.83 29.6008 2188.06 27.9066 2186.12 26.7508C2184.18 25.5949 2182.1 25 2180 25C2177.9 25 2175.82 25.5949 2173.88 26.7508C2171.94 27.9066 2170.17 29.6008 2168.69 31.7365C2167.2 33.8723 2166.02 36.4078 2165.22 39.1983C2164.41 41.9888 2164 44.9796 2164 48L2180 48H2196Z"/>
</mask>
<path d="M2196 48C2196 44.9796 2195.59 41.9888 2194.78 39.1983C2193.98 36.4078 2192.8 33.8723 2191.31 31.7365C2189.83 29.6008 2188.06 27.9066 2186.12 26.7508C2184.18 25.5949 2182.1 25 2180 25C2177.9 25 2175.82 25.5949 2173.88 26.7508C2171.94 27.9066 2170.17 29.6008 2168.69 31.7365C2167.2 33.8723 2166.02 36.4078 2165.22 39.1983C2164.41 41.9888 2164 44.9796 2164 48L2180 48H2196Z" stroke="black" stroke-width="24" mask="url(#path-13-inside-3_111_34)"/>
<mask id="path-14-inside-4_111_34" fill="white">
<path d="M2264 126.5C2264 115.272 2261.79 104.154 2257.49 93.7806C2253.19 83.4072 2246.9 73.9818 2238.96 66.0424C2231.02 58.103 2221.59 51.8051 2211.22 47.5083C2200.85 43.2115 2189.73 41 2178.5 41C2167.27 41 2156.15 43.2115 2145.78 47.5083C2135.41 51.8051 2125.98 58.103 2118.04 66.0424C2110.1 73.9818 2103.81 83.4072 2099.51 93.7806C2095.21 104.154 2093 115.272 2093 126.5L2178.5 126.5H2264Z"/>
</mask>
<path d="M2264 126.5C2264 115.272 2261.79 104.154 2257.49 93.7806C2253.19 83.4072 2246.9 73.9818 2238.96 66.0424C2231.02 58.103 2221.59 51.8051 2211.22 47.5083C2200.85 43.2115 2189.73 41 2178.5 41C2167.27 41 2156.15 43.2115 2145.78 47.5083C2135.41 51.8051 2125.98 58.103 2118.04 66.0424C2110.1 73.9818 2103.81 83.4072 2099.51 93.7806C2095.21 104.154 2093 115.272 2093 126.5L2178.5 126.5H2264Z" stroke="black" stroke-width="24" mask="url(#path-14-inside-4_111_34)"/>
<rect x="47" y="47" width="104" height="268" stroke="black" stroke-width="12"/>
<rect x="-6" y="6" width="104" height="268" transform="matrix(-1 0 0 1 301 41)" stroke="black" stroke-width="12"/>
<mask id="path-17-inside-5_111_34" fill="white">
<path d="M102.514 50.8776C102.364 40.8149 99.2332 31.0227 93.518 22.7391C87.8028 14.4556 79.7597 8.05283 70.4056 4.3405C61.0515 0.628175 50.8067 -0.226983 40.9666 1.88317C31.1265 3.99332 22.1331 8.97401 15.1238 16.1954C8.11436 23.4168 3.40377 32.5545 1.58766 42.4531C-0.228449 52.3517 0.931494 62.5665 4.92081 71.8058C8.91012 81.0452 15.5496 88.8941 23.9997 94.3599C32.4498 99.8258 42.331 102.663 52.3937 102.513L51.6357 51.6355L102.514 50.8776Z"/>
</mask>
<path d="M102.514 50.8776C102.364 40.8149 99.2332 31.0227 93.518 22.7391C87.8028 14.4556 79.7597 8.05283 70.4056 4.3405C61.0515 0.628175 50.8067 -0.226983 40.9666 1.88317C31.1265 3.99332 22.1331 8.97401 15.1238 16.1954C8.11436 23.4168 3.40377 32.5545 1.58766 42.4531C-0.228449 52.3517 0.931494 62.5665 4.92081 71.8058C8.91012 81.0452 15.5496 88.8941 23.9997 94.3599C32.4498 99.8258 42.331 102.663 52.3937 102.513L51.6357 51.6355L102.514 50.8776Z" stroke="black" stroke-width="24" mask="url(#path-17-inside-5_111_34)"/>
<mask id="path-18-inside-6_111_34" fill="white">
<path d="M253.763 50.8776C253.914 40.8149 257.063 31.0227 262.813 22.7391C268.563 14.4556 276.655 8.05283 286.066 4.3405C295.478 0.628175 305.785 -0.226983 315.685 1.88317C325.585 3.99332 334.633 8.97401 341.685 16.1954C348.738 23.4168 353.477 32.5545 355.304 42.4531C357.131 52.3517 355.964 62.5665 351.951 71.8058C347.937 81.0452 341.257 88.8941 332.755 94.3599C324.254 99.8258 314.312 102.663 304.188 102.513L304.951 51.6355L253.763 50.8776Z"/>
</mask>
<path d="M253.763 50.8776C253.914 40.8149 257.063 31.0227 262.813 22.7391C268.563 14.4556 276.655 8.05283 286.066 4.3405C295.478 0.628175 305.785 -0.226983 315.685 1.88317C325.585 3.99332 334.633 8.97401 341.685 16.1954C348.738 23.4168 353.477 32.5545 355.304 42.4531C357.131 52.3517 355.964 62.5665 351.951 71.8058C347.937 81.0452 341.257 88.8941 332.755 94.3599C324.254 99.8258 314.312 102.663 304.188 102.513L304.951 51.6355L253.763 50.8776Z" stroke="black" stroke-width="24" mask="url(#path-18-inside-6_111_34)"/>
<rect x="674" y="72" width="236" height="268" stroke="black" stroke-width="12"/>
<rect x="-6" y="6" width="104" height="268" transform="matrix(-1 0 0 1 1093 66)" stroke="black" stroke-width="12"/>
<mask id="path-21-inside-7_111_34" fill="white">
<path d="M1045.76 75.8776C1045.91 65.8149 1049.06 56.0227 1054.81 47.7391C1060.56 39.4556 1068.66 33.0528 1078.07 29.3405C1087.48 25.6282 1097.79 24.773 1107.69 26.8832C1117.59 28.9933 1126.63 33.974 1133.69 41.1954C1140.74 48.4168 1145.48 57.5545 1147.31 67.4531C1149.13 77.3517 1147.97 87.5665 1143.95 96.8058C1139.94 106.045 1133.26 113.894 1124.76 119.36C1116.25 124.826 1106.31 127.663 1096.19 127.513L1096.95 76.6355L1045.76 75.8776Z"/>
</mask>
<path d="M1045.76 75.8776C1045.91 65.8149 1049.06 56.0227 1054.81 47.7391C1060.56 39.4556 1068.66 33.0528 1078.07 29.3405C1087.48 25.6282 1097.79 24.773 1107.69 26.8832C1117.59 28.9933 1126.63 33.974 1133.69 41.1954C1140.74 48.4168 1145.48 57.5545 1147.31 67.4531C1149.13 77.3517 1147.97 87.5665 1143.95 96.8058C1139.94 106.045 1133.26 113.894 1124.76 119.36C1116.25 124.826 1106.31 127.663 1096.19 127.513L1096.95 76.6355L1045.76 75.8776Z" stroke="black" stroke-width="24" mask="url(#path-21-inside-7_111_34)"/>
<path d="M716.795 61.1036L881 23.5281V64.8611L716.795 61.1036Z" stroke="black" stroke-width="12"/>
</svg>
