<svg width="335" height="327" viewBox="0 0 335 327" fill="none" xmlns="http://www.w3.org/2000/svg">
<rect x="-2.5" y="2.5" width="93" height="249" transform="matrix(-1 0 0 1 93 73)" stroke="black" stroke-width="5"/>
<rect x="-2.5" y="2.5" width="93" height="249" transform="matrix(-1 0 0 1 211 73)" stroke="black" stroke-width="5"/>
<rect x="-2.5" y="2.5" width="93" height="249" transform="matrix(-1 0 0 1 330 73)" stroke="black" stroke-width="5"/>
<rect x="-2.5" y="2.5" width="93" height="249" transform="matrix(-1 0 0 1 330 73)" stroke="black" stroke-width="5"/>
<rect x="-2.5" y="2.5" width="71" height="29" transform="matrix(-1 0 0 1 82 40)" stroke="black" stroke-width="5"/>
<rect x="-2.5" y="2.5" width="71" height="29" transform="matrix(-1 0 0 1 200 40)" stroke="black" stroke-width="5"/>
<path d="M147.5 138.5C154.127 138.5 159.5 133.127 159.5 126.5L159.5 75.5L135.5 75.5L135.5 126.5C135.5 133.127 140.873 138.5 147.5 138.5Z" stroke="black" stroke-width="5"/>
<path d="M187.5 117.5C193.575 117.5 198.5 112.575 198.5 106.5L198.5 76.5L176.5 76.5L176.5 106.5C176.5 112.575 181.425 117.5 187.5 117.5Z" stroke="black" stroke-width="5"/>
<rect x="-2.5" y="2.5" width="71" height="29" transform="matrix(-1 0 0 1 319 40)" stroke="black" stroke-width="5"/>
<rect x="-2.5" y="2.5" width="71" height="29" transform="matrix(-1 0 0 1 319 40)" stroke="black" stroke-width="5"/>
<path d="M38.283 2.5L34.7376 41.5L63.2932 41.5L60.191 2.5L38.283 2.5Z" stroke="black" stroke-width="5"/>
<path d="M156.283 2.5L152.738 41.5L181.293 41.5L178.191 2.5L156.283 2.5Z" stroke="black" stroke-width="5"/>
<path d="M275.283 2.5L271.738 41.5L300.293 41.5L297.191 2.5L275.283 2.5Z" stroke="black" stroke-width="5"/>
<path d="M275.283 2.5L271.738 41.5L300.293 41.5L297.191 2.5L275.283 2.5Z" stroke="black" stroke-width="5"/>
</svg>
