<svg width="393" height="887" viewBox="0 0 393 887" fill="none" xmlns="http://www.w3.org/2000/svg">
<g clip-path="url(#clip0_54_22)">
<rect width="393" height="887" fill="url(#paint0_linear_54_22)"/>
<rect x="353" y="209" width="309" height="45" rx="20" transform="rotate(180 353 209)" fill="black" fill-opacity="0.24"/>
<path d="M65.1748 183.24L65.1348 186.38H65.9348C66.4814 186.367 66.9681 186.36 67.3948 186.36C67.8214 186.36 68.2948 186.367 68.8148 186.38H68.9148C69.0748 186.38 69.2281 186.387 69.3748 186.4C69.5348 186.4 69.6881 186.4 69.8348 186.4C69.9948 186.413 70.1481 186.44 70.2948 186.48C70.4414 186.507 70.5881 186.54 70.7348 186.58C70.9614 186.66 71.1481 186.78 71.2948 186.94C71.4281 187.113 71.4948 187.307 71.4948 187.52C71.4948 187.587 71.4948 187.667 71.4948 187.76C71.4948 187.84 71.4814 187.913 71.4548 187.98C71.4281 188.127 71.3414 188.26 71.1948 188.38C71.1281 188.473 71.0014 188.54 70.8148 188.58C70.6414 188.633 70.4681 188.667 70.2948 188.68C70.1081 188.72 69.9214 188.74 69.7348 188.74H68.7948L65.0948 188.76L65.0548 192.68L69.0348 192.72H69.9748C70.0814 192.72 70.1814 192.72 70.2748 192.72C70.3681 192.72 70.4548 192.727 70.5348 192.74C70.6414 192.767 70.7348 192.787 70.8148 192.8C70.9081 192.8 70.9948 192.813 71.0748 192.84C71.2348 192.893 71.3681 192.967 71.4748 193.06C71.6081 193.193 71.6948 193.333 71.7348 193.48C71.7481 193.547 71.7548 193.62 71.7548 193.7C71.7681 193.767 71.7681 193.84 71.7548 193.92C71.7548 194.133 71.6881 194.327 71.5548 194.5C71.3948 194.687 71.2081 194.807 70.9948 194.86C70.7148 194.98 70.4081 195.04 70.0748 195.04C69.9281 195.053 69.7748 195.06 69.6148 195.06C69.4548 195.06 69.3014 195.067 69.1548 195.08H69.0348C67.9948 195.107 66.9148 195.107 65.7948 195.08C65.5281 195.08 65.3148 195.073 65.1548 195.06C64.9948 195.06 64.8481 195.06 64.7148 195.06C64.5948 195.06 64.4681 195.06 64.3348 195.06C64.2014 195.06 64.0281 195.06 63.8148 195.06C63.5081 195.087 63.2548 195.033 63.0548 194.9C62.9081 194.807 62.7948 194.68 62.7148 194.52C62.6748 194.48 62.6548 194.44 62.6548 194.4C62.6414 194.373 62.6281 194.353 62.6148 194.34C62.6014 194.327 62.5881 194.307 62.5748 194.28C62.5481 194.213 62.5281 194.147 62.5148 194.08C62.5014 194 62.4948 193.927 62.4948 193.86C62.4814 193.793 62.4681 193.727 62.4548 193.66C62.4548 193.593 62.4481 193.527 62.4348 193.46V193.14C62.4348 193.087 62.4348 193.033 62.4348 192.98C62.4481 192.927 62.4548 192.873 62.4548 192.82V191.26L62.4948 188.38V185.72C62.4948 185.24 62.4948 184.813 62.4948 184.44C62.5081 184.067 62.5214 183.66 62.5348 183.22V183.12C62.5481 182.973 62.5548 182.84 62.5548 182.72C62.5681 182.587 62.5748 182.453 62.5748 182.32C62.5881 182.053 62.6614 181.793 62.7948 181.54C62.8481 181.433 62.9014 181.34 62.9548 181.26C63.0214 181.18 63.1081 181.113 63.2148 181.06C63.4148 180.94 63.6214 180.88 63.8348 180.88C63.9414 180.88 64.0214 180.887 64.0748 180.9V180.88C64.3148 180.88 64.5081 180.88 64.6548 180.88C64.8014 180.88 64.9414 180.88 65.0748 180.88C65.2214 180.88 65.3748 180.88 65.5348 180.88C65.6948 180.867 65.9148 180.86 66.1948 180.86C66.7281 180.847 67.2348 180.84 67.7148 180.84C68.1948 180.84 68.6881 180.847 69.1948 180.86H69.2748C69.4214 180.873 69.5748 180.88 69.7348 180.88C69.8948 180.88 70.0481 180.887 70.1948 180.9C70.3414 180.9 70.4881 180.92 70.6348 180.96C70.7814 180.987 70.9281 181.027 71.0748 181.08C71.3014 181.147 71.4881 181.26 71.6348 181.42C71.7548 181.607 71.8148 181.793 71.8148 181.98C71.8148 182.06 71.8148 182.14 71.8148 182.22C71.8148 182.287 71.8014 182.353 71.7748 182.42C71.7614 182.553 71.6814 182.693 71.5348 182.84C71.4814 182.867 71.4214 182.9 71.3548 182.94C71.3014 182.98 71.2348 183.013 71.1548 183.04C71.0748 183.067 70.9881 183.087 70.8948 183.1C70.8148 183.1 70.7348 183.107 70.6548 183.12C70.5481 183.147 70.4481 183.16 70.3548 183.16C70.2748 183.16 70.1814 183.16 70.0748 183.16H69.1748L65.1748 183.18V183.24ZM84.2513 190.34C84.278 190.767 84.2913 191.173 84.2913 191.56C84.2913 191.933 84.278 192.333 84.2513 192.76C84.2513 192.92 84.2513 193.1 84.2513 193.3C84.2513 193.5 84.238 193.693 84.2113 193.88C84.1847 194.067 84.138 194.24 84.0713 194.4C84.0047 194.56 83.9047 194.687 83.7713 194.78C83.6113 194.887 83.4313 194.96 83.2313 195C83.0313 195.027 82.8447 195.013 82.6713 194.96C82.498 194.907 82.3447 194.807 82.2113 194.66C82.0913 194.513 82.0247 194.307 82.0113 194.04C81.9713 193.427 81.9513 192.813 81.9513 192.2C81.9513 191.893 81.9447 191.6 81.9313 191.32C81.9313 191.04 81.938 190.647 81.9513 190.14C81.9513 189.887 81.9313 189.6 81.8913 189.28C81.8513 188.947 81.7513 188.713 81.5913 188.58C81.4713 188.473 81.338 188.413 81.1913 188.4C81.0447 188.373 80.898 188.387 80.7513 188.44C80.618 188.493 80.498 188.593 80.3913 188.74C80.2847 188.873 80.2113 189.047 80.1713 189.26C80.1713 189.433 80.1647 189.613 80.1513 189.8C80.1513 189.973 80.158 190.14 80.1713 190.3C80.1847 190.727 80.1913 191.133 80.1913 191.52C80.1913 191.893 80.1847 192.293 80.1713 192.72C80.158 192.893 80.1513 193.08 80.1513 193.28C80.1647 193.48 80.1647 193.68 80.1513 193.88C80.138 194.067 80.098 194.24 80.0313 194.4C79.978 194.56 79.878 194.687 79.7313 194.78C79.5713 194.887 79.398 194.953 79.2113 194.98C79.038 194.993 78.8713 194.967 78.7113 194.9C78.5647 194.82 78.4313 194.7 78.3113 194.54C78.2047 194.38 78.1447 194.167 78.1313 193.9C78.1047 193.593 78.0847 193.313 78.0713 193.06C78.0713 192.793 78.0713 192.513 78.0713 192.22C78.0713 191.913 78.078 191.6 78.0913 191.28C78.1047 190.947 78.098 190.627 78.0713 190.32C78.0713 190.227 78.0647 190.12 78.0513 190C78.0513 189.867 78.0447 189.733 78.0313 189.6C78.0313 189.467 78.018 189.34 77.9913 189.22C77.978 189.087 77.9513 188.98 77.9113 188.9C77.8047 188.713 77.6113 188.593 77.3313 188.54C77.0647 188.487 76.838 188.507 76.6513 188.6C76.4647 188.693 76.3247 188.813 76.2313 188.96C76.138 189.107 76.0713 189.267 76.0313 189.44C75.9913 189.613 75.9713 189.8 75.9713 190C75.9713 190.187 75.9713 190.367 75.9713 190.54C75.9713 191.407 75.9713 192.16 75.9713 192.8C75.9847 193.427 75.918 193.933 75.7713 194.32C75.7047 194.52 75.5647 194.673 75.3513 194.78C75.1513 194.887 74.9313 194.94 74.6913 194.94C74.4647 194.94 74.2513 194.887 74.0513 194.78C73.8513 194.673 73.718 194.507 73.6513 194.28C73.6113 194.133 73.5713 193.927 73.5313 193.66C73.5047 193.38 73.4847 193.073 73.4713 192.74C73.458 192.407 73.4513 192.073 73.4513 191.74C73.4513 191.393 73.4513 191.08 73.4513 190.8V187.92C73.438 187.613 73.4313 187.28 73.4313 186.92C73.4313 186.56 73.4847 186.233 73.5913 185.94C73.6847 185.687 73.8313 185.527 74.0313 185.46C74.2313 185.38 74.438 185.347 74.6513 185.36C74.8913 185.36 75.078 185.427 75.2113 185.56C75.358 185.68 75.4647 185.833 75.5313 186.02C75.598 186.193 75.638 186.393 75.6513 186.62C75.6647 186.833 75.678 187.04 75.6913 187.24C75.838 186.907 76.0113 186.633 76.2113 186.42C76.4247 186.193 76.7247 186.047 77.1113 185.98C78.098 185.793 78.8847 186.047 79.4713 186.74C79.738 186.473 80.078 186.253 80.4913 186.08C80.8113 185.96 81.138 185.907 81.4713 185.92C81.8047 185.92 82.118 185.98 82.4113 186.1C82.718 186.22 82.9913 186.393 83.2313 186.62C83.4847 186.847 83.6847 187.12 83.8313 187.44C84.0313 187.867 84.1447 188.34 84.1713 188.86C84.198 189.38 84.2247 189.873 84.2513 190.34ZM88.2318 186.58C88.6318 186.38 89.0518 186.24 89.4918 186.16C89.9318 186.067 90.3651 186.047 90.7918 186.1C91.2318 186.14 91.6518 186.253 92.0518 186.44C92.4518 186.613 92.8251 186.867 93.1718 187.2C93.5185 187.547 93.7851 187.927 93.9718 188.34C94.1585 188.753 94.2918 189.213 94.3718 189.72C94.4251 190.067 94.5118 190.387 94.6318 190.68C94.7518 190.973 94.8785 191.267 95.0118 191.56C95.1585 191.853 95.2918 192.147 95.4118 192.44C95.5451 192.733 95.6518 193.04 95.7318 193.36C95.7985 193.667 95.7718 193.967 95.6518 194.26C95.5451 194.54 95.3185 194.713 94.9718 194.78C94.7718 194.82 94.5785 194.807 94.3918 194.74C94.2185 194.66 94.0585 194.553 93.9118 194.42C93.7651 194.273 93.6318 194.12 93.5118 193.96C93.4051 193.787 93.3051 193.627 93.2118 193.48C92.9051 193.88 92.5718 194.193 92.2118 194.42C91.8518 194.633 91.4185 194.773 90.9118 194.84C90.4851 194.893 90.0785 194.907 89.6918 194.88C89.3051 194.853 88.8918 194.78 88.4518 194.66C87.8785 194.513 87.4051 194.26 87.0318 193.9C86.6718 193.527 86.3918 193.1 86.1918 192.62C86.0051 192.127 85.9051 191.6 85.8918 191.04C85.8785 190.48 85.9451 189.927 86.0918 189.38C86.2785 188.66 86.5585 188.073 86.9318 187.62C87.3051 187.167 87.7385 186.82 88.2318 186.58ZM88.7318 188.92C88.5451 189.107 88.3985 189.327 88.2918 189.58C88.1851 189.833 88.1185 190.1 88.0918 190.38C88.0785 190.66 88.1051 190.94 88.1718 191.22C88.2385 191.5 88.3451 191.747 88.4918 191.96C88.6251 192.147 88.8518 192.307 89.1718 192.44C89.4918 192.56 89.8251 192.633 90.1718 192.66C90.5718 192.687 90.9185 192.58 91.2118 192.34C91.5185 192.1 91.7451 191.8 91.8918 191.44C92.0518 191.067 92.1251 190.673 92.1118 190.26C92.0985 189.833 91.9851 189.447 91.7718 189.1C91.6118 188.847 91.3985 188.66 91.1318 188.54C90.8785 188.42 90.6051 188.36 90.3118 188.36C90.0185 188.347 89.7251 188.393 89.4318 188.5C89.1518 188.593 88.9185 188.733 88.7318 188.92ZM99.9157 187.42C99.9157 187.793 99.9157 188.213 99.9157 188.68C99.929 189.147 99.9357 189.633 99.9357 190.14C99.9357 190.633 99.9357 191.127 99.9357 191.62C99.9357 192.1 99.929 192.547 99.9157 192.96C99.9024 193.16 99.8824 193.38 99.8557 193.62C99.829 193.847 99.7757 194.06 99.6957 194.26C99.6157 194.46 99.489 194.627 99.3157 194.76C99.1557 194.88 98.9357 194.933 98.6557 194.92C98.2424 194.893 97.9424 194.713 97.7557 194.38C97.5824 194.047 97.4824 193.58 97.4557 192.98C97.4557 192.673 97.449 192.32 97.4357 191.92C97.4357 191.52 97.429 191.113 97.4157 190.7C97.4157 190.287 97.4157 189.887 97.4157 189.5C97.4157 189.1 97.4157 188.74 97.4157 188.42C97.4157 188.233 97.409 188.007 97.3957 187.74C97.3957 187.473 97.4024 187.2 97.4157 186.92C97.429 186.64 97.4624 186.373 97.5157 186.12C97.569 185.853 97.6557 185.633 97.7757 185.46C97.869 185.353 98.0024 185.273 98.1757 185.22C98.349 185.153 98.529 185.12 98.7157 185.12C98.9157 185.12 99.1024 185.153 99.2757 185.22C99.4624 185.287 99.5957 185.38 99.6757 185.5C99.729 185.58 99.769 185.693 99.7957 185.84C99.8224 185.987 99.8424 186.153 99.8557 186.34C99.8824 186.513 99.8957 186.7 99.8957 186.9C99.909 187.087 99.9157 187.26 99.9157 187.42ZM99.1557 183.38C98.7424 183.487 98.3957 183.447 98.1157 183.26C97.849 183.06 97.6824 182.767 97.6157 182.38C97.5624 182.1 97.5824 181.853 97.6757 181.64C97.769 181.427 97.909 181.267 98.0957 181.16C98.2824 181.04 98.4957 180.987 98.7357 181C98.9757 181.013 99.2157 181.107 99.4557 181.28C99.6824 181.44 99.8424 181.627 99.9357 181.84C100.042 182.053 100.076 182.26 100.036 182.46C100.009 182.66 99.9224 182.847 99.7757 183.02C99.629 183.18 99.4224 183.3 99.1557 183.38ZM104.528 193.4C104.515 193.467 104.502 193.533 104.488 193.6C104.488 193.653 104.488 193.713 104.488 193.78L104.368 194.2C104.342 194.253 104.322 194.287 104.308 194.3L104.248 194.42C104.182 194.567 104.062 194.687 103.888 194.78C103.568 194.94 103.228 194.98 102.868 194.9C102.642 194.873 102.462 194.807 102.328 194.7C102.195 194.607 102.102 194.493 102.048 194.36C101.995 194.227 101.955 194.093 101.928 193.96C101.888 193.827 101.868 193.707 101.868 193.6V182.4C101.868 182.307 101.868 182.227 101.868 182.16C101.882 182.08 101.895 182.007 101.908 181.94C101.922 181.847 101.935 181.767 101.948 181.7C101.975 181.633 102.002 181.56 102.028 181.48C102.068 181.347 102.142 181.24 102.248 181.16C102.408 181.04 102.562 180.973 102.708 180.96C102.802 180.933 102.888 180.92 102.968 180.92C103.048 180.907 103.142 180.9 103.248 180.9C103.435 180.9 103.648 180.953 103.888 181.06C104.075 181.167 104.208 181.313 104.288 181.5C104.422 181.767 104.488 182.013 104.488 182.24C104.502 182.373 104.508 182.573 104.508 182.84C104.522 183.107 104.528 183.307 104.528 183.44V183.52C104.555 183.947 104.568 184.36 104.568 184.76C104.568 185.147 104.562 185.573 104.548 186.04C104.548 186.493 104.542 186.933 104.528 187.36C104.528 187.773 104.528 188.187 104.528 188.6V192.8C104.528 192.853 104.528 192.907 104.528 192.96C104.542 193 104.548 193.047 104.548 193.1C104.548 193.233 104.542 193.333 104.528 193.4Z" fill="white" fill-opacity="0.68"/>
<rect x="351" y="302" width="309" height="45" rx="20" transform="rotate(180 351 302)" fill="black" fill-opacity="0.24"/>
<path d="M69.8695 286.48C69.8561 286.707 69.8228 286.947 69.7695 287.2C69.7295 287.453 69.6028 287.66 69.3895 287.82C69.2295 287.953 69.0495 288.033 68.8495 288.06C68.6495 288.087 68.4495 288.073 68.2495 288.02C68.0628 287.98 67.8828 287.913 67.7095 287.82C67.5361 287.713 67.3961 287.587 67.2895 287.44C66.8361 286.88 66.4161 286.307 66.0295 285.72C65.6561 285.12 65.2761 284.52 64.8895 283.92L63.2095 281.38C62.9828 281.02 62.7428 280.62 62.4895 280.18C62.2361 279.727 61.9761 279.307 61.7095 278.92L61.6495 286.56V286.74C61.6495 286.953 61.6095 287.167 61.5295 287.38C61.4628 287.58 61.3428 287.753 61.1695 287.9C61.0361 288.007 60.8628 288.08 60.6495 288.12C60.3161 288.187 60.0361 288.167 59.8095 288.06C59.5961 287.953 59.4228 287.807 59.2895 287.62C59.1695 287.433 59.0828 287.22 59.0295 286.98C58.9895 286.727 58.9828 286.48 59.0095 286.24V285.9L59.0495 284.34L59.0695 281.44C59.0828 281.013 59.0895 280.58 59.0895 280.14C59.0895 279.687 59.0895 279.227 59.0895 278.76C59.0761 278.187 59.0761 277.58 59.0895 276.94C59.1161 276.3 59.1428 275.7 59.1695 275.14C59.1961 274.833 59.2695 274.573 59.3895 274.36C59.4428 274.173 59.5828 274.013 59.8095 273.88C59.9561 273.787 60.1428 273.727 60.3695 273.7C60.6095 273.673 60.8161 273.68 60.9895 273.72C61.0561 273.747 61.1228 273.78 61.1895 273.82C61.2561 273.847 61.3228 273.88 61.3895 273.92C61.4561 273.973 61.5161 274.027 61.5695 274.08C61.6361 274.133 61.6961 274.193 61.7495 274.26C61.8161 274.327 61.8761 274.4 61.9295 274.48C61.9828 274.547 62.0361 274.613 62.0895 274.68C62.1295 274.76 62.1695 274.833 62.2095 274.9C62.2495 274.967 62.2961 275.033 62.3495 275.1L62.5695 275.42L67.1895 282.7V281.38C67.1895 280.953 67.1828 280.52 67.1695 280.08C67.1695 279.627 67.1628 279.16 67.1495 278.68C67.1495 278.12 67.1495 277.52 67.1495 276.88C67.1628 276.24 67.1828 275.64 67.2095 275.08C67.2095 274.853 67.2761 274.593 67.4095 274.3C67.4761 274.127 67.5895 273.987 67.7495 273.88C67.9095 273.773 68.0895 273.7 68.2895 273.66C68.4895 273.62 68.6895 273.62 68.8895 273.66C69.0895 273.7 69.2628 273.78 69.4095 273.9C69.4495 273.94 69.4895 273.987 69.5295 274.04C69.5695 274.093 69.6028 274.153 69.6295 274.22C69.6961 274.393 69.7361 274.547 69.7495 274.68C69.7895 274.867 69.8095 275.033 69.8095 275.18C69.8095 276.847 69.8095 278.547 69.8095 280.28C69.8228 282.013 69.8361 283.713 69.8495 285.38C69.8495 285.567 69.8561 285.753 69.8695 285.94C69.8828 286.113 69.8828 286.293 69.8695 286.48ZM73.8295 279.58C74.2295 279.38 74.6495 279.24 75.0895 279.16C75.5295 279.067 75.9628 279.047 76.3895 279.1C76.8295 279.14 77.2495 279.253 77.6495 279.44C78.0495 279.613 78.4228 279.867 78.7695 280.2C79.1161 280.547 79.3828 280.927 79.5695 281.34C79.7561 281.753 79.8895 282.213 79.9695 282.72C80.0228 283.067 80.1095 283.387 80.2295 283.68C80.3495 283.973 80.4761 284.267 80.6095 284.56C80.7561 284.853 80.8895 285.147 81.0095 285.44C81.1428 285.733 81.2495 286.04 81.3295 286.36C81.3961 286.667 81.3695 286.967 81.2495 287.26C81.1428 287.54 80.9161 287.713 80.5695 287.78C80.3695 287.82 80.1761 287.807 79.9895 287.74C79.8161 287.66 79.6561 287.553 79.5095 287.42C79.3628 287.273 79.2295 287.12 79.1095 286.96C79.0028 286.787 78.9028 286.627 78.8095 286.48C78.5028 286.88 78.1695 287.193 77.8095 287.42C77.4495 287.633 77.0161 287.773 76.5095 287.84C76.0828 287.893 75.6761 287.907 75.2895 287.88C74.9028 287.853 74.4895 287.78 74.0495 287.66C73.4761 287.513 73.0028 287.26 72.6295 286.9C72.2695 286.527 71.9895 286.1 71.7895 285.62C71.6028 285.127 71.5028 284.6 71.4895 284.04C71.4761 283.48 71.5428 282.927 71.6895 282.38C71.8761 281.66 72.1561 281.073 72.5295 280.62C72.9028 280.167 73.3361 279.82 73.8295 279.58ZM74.3295 281.92C74.1428 282.107 73.9961 282.327 73.8895 282.58C73.7828 282.833 73.7161 283.1 73.6895 283.38C73.6761 283.66 73.7028 283.94 73.7695 284.22C73.8361 284.5 73.9428 284.747 74.0895 284.96C74.2228 285.147 74.4495 285.307 74.7695 285.44C75.0895 285.56 75.4228 285.633 75.7695 285.66C76.1695 285.687 76.5161 285.58 76.8095 285.34C77.1161 285.1 77.3428 284.8 77.4895 284.44C77.6495 284.067 77.7228 283.673 77.7095 283.26C77.6961 282.833 77.5828 282.447 77.3695 282.1C77.2095 281.847 76.9961 281.66 76.7295 281.54C76.4761 281.42 76.2028 281.36 75.9095 281.36C75.6161 281.347 75.3228 281.393 75.0295 281.5C74.7495 281.593 74.5161 281.733 74.3295 281.92ZM93.8334 283.34C93.86 283.767 93.8734 284.173 93.8734 284.56C93.8734 284.933 93.86 285.333 93.8334 285.76C93.8334 285.92 93.8334 286.1 93.8334 286.3C93.8334 286.5 93.82 286.693 93.7934 286.88C93.7667 287.067 93.72 287.24 93.6534 287.4C93.5867 287.56 93.4867 287.687 93.3534 287.78C93.1934 287.887 93.0134 287.96 92.8134 288C92.6134 288.027 92.4267 288.013 92.2534 287.96C92.08 287.907 91.9267 287.807 91.7934 287.66C91.6734 287.513 91.6067 287.307 91.5934 287.04C91.5534 286.427 91.5334 285.813 91.5334 285.2C91.5334 284.893 91.5267 284.6 91.5134 284.32C91.5134 284.04 91.52 283.647 91.5334 283.14C91.5334 282.887 91.5134 282.6 91.4734 282.28C91.4334 281.947 91.3334 281.713 91.1734 281.58C91.0534 281.473 90.92 281.413 90.7734 281.4C90.6267 281.373 90.48 281.387 90.3334 281.44C90.2 281.493 90.08 281.593 89.9734 281.74C89.8667 281.873 89.7934 282.047 89.7534 282.26C89.7534 282.433 89.7467 282.613 89.7334 282.8C89.7334 282.973 89.74 283.14 89.7534 283.3C89.7667 283.727 89.7734 284.133 89.7734 284.52C89.7734 284.893 89.7667 285.293 89.7534 285.72C89.74 285.893 89.7334 286.08 89.7334 286.28C89.7467 286.48 89.7467 286.68 89.7334 286.88C89.72 287.067 89.68 287.24 89.6134 287.4C89.56 287.56 89.46 287.687 89.3134 287.78C89.1534 287.887 88.98 287.953 88.7934 287.98C88.62 287.993 88.4534 287.967 88.2934 287.9C88.1467 287.82 88.0134 287.7 87.8934 287.54C87.7867 287.38 87.7267 287.167 87.7134 286.9C87.6867 286.593 87.6667 286.313 87.6534 286.06C87.6534 285.793 87.6534 285.513 87.6534 285.22C87.6534 284.913 87.66 284.6 87.6734 284.28C87.6867 283.947 87.68 283.627 87.6534 283.32C87.6534 283.227 87.6467 283.12 87.6334 283C87.6334 282.867 87.6267 282.733 87.6134 282.6C87.6134 282.467 87.6 282.34 87.5734 282.22C87.56 282.087 87.5334 281.98 87.4934 281.9C87.3867 281.713 87.1934 281.593 86.9134 281.54C86.6467 281.487 86.42 281.507 86.2334 281.6C86.0467 281.693 85.9067 281.813 85.8134 281.96C85.72 282.107 85.6534 282.267 85.6134 282.44C85.5734 282.613 85.5534 282.8 85.5534 283C85.5534 283.187 85.5534 283.367 85.5534 283.54C85.5534 284.407 85.5534 285.16 85.5534 285.8C85.5667 286.427 85.5 286.933 85.3534 287.32C85.2867 287.52 85.1467 287.673 84.9334 287.78C84.7334 287.887 84.5134 287.94 84.2734 287.94C84.0467 287.94 83.8334 287.887 83.6334 287.78C83.4334 287.673 83.3 287.507 83.2334 287.28C83.1934 287.133 83.1534 286.927 83.1134 286.66C83.0867 286.38 83.0667 286.073 83.0534 285.74C83.04 285.407 83.0334 285.073 83.0334 284.74C83.0334 284.393 83.0334 284.08 83.0334 283.8V280.92C83.02 280.613 83.0134 280.28 83.0134 279.92C83.0134 279.56 83.0667 279.233 83.1734 278.94C83.2667 278.687 83.4134 278.527 83.6134 278.46C83.8134 278.38 84.02 278.347 84.2334 278.36C84.4734 278.36 84.66 278.427 84.7934 278.56C84.94 278.68 85.0467 278.833 85.1134 279.02C85.18 279.193 85.22 279.393 85.2334 279.62C85.2467 279.833 85.26 280.04 85.2734 280.24C85.42 279.907 85.5934 279.633 85.7934 279.42C86.0067 279.193 86.3067 279.047 86.6934 278.98C87.68 278.793 88.4667 279.047 89.0534 279.74C89.32 279.473 89.66 279.253 90.0734 279.08C90.3934 278.96 90.72 278.907 91.0534 278.92C91.3867 278.92 91.7 278.98 91.9934 279.1C92.3 279.22 92.5734 279.393 92.8134 279.62C93.0667 279.847 93.2667 280.12 93.4134 280.44C93.6134 280.867 93.7267 281.34 93.7534 281.86C93.78 282.38 93.8067 282.873 93.8334 283.34ZM102.394 285.26C102.554 285.22 102.714 285.193 102.874 285.18C103.047 285.167 103.2 285.187 103.334 285.24C103.48 285.293 103.6 285.387 103.694 285.52C103.787 285.64 103.834 285.813 103.834 286.04C103.834 286.2 103.794 286.353 103.714 286.5C103.634 286.647 103.534 286.78 103.414 286.9C103.294 287.02 103.16 287.127 103.014 287.22C102.867 287.3 102.727 287.367 102.594 287.42C102.207 287.593 101.76 287.727 101.254 287.82C100.76 287.913 100.247 287.947 99.7138 287.92C98.9938 287.893 98.3005 287.753 97.6338 287.5C96.9805 287.233 96.4672 286.8 96.0938 286.2C95.7472 285.613 95.5405 284.96 95.4738 284.24C95.4072 283.52 95.4405 282.84 95.5738 282.2C95.7205 281.427 95.9672 280.8 96.3138 280.32C96.6738 279.827 97.1005 279.433 97.5938 279.14C98.1938 278.793 98.8672 278.613 99.6138 278.6C100.36 278.587 101.074 278.733 101.754 279.04C102.207 279.24 102.614 279.513 102.974 279.86C103.334 280.193 103.607 280.6 103.794 281.08C103.847 281.2 103.887 281.347 103.914 281.52C103.954 281.693 103.98 281.88 103.994 282.08C104.007 282.267 104.007 282.453 103.994 282.64C103.98 282.827 103.947 282.993 103.894 283.14C103.814 283.38 103.714 283.567 103.594 283.7C103.474 283.833 103.32 283.933 103.134 284C102.947 284.067 102.72 284.113 102.454 284.14C102.2 284.153 101.894 284.167 101.534 284.18C101.214 284.193 100.914 284.2 100.634 284.2C100.354 284.2 100.067 284.2 99.7738 284.2C99.4805 284.187 99.1738 284.18 98.8538 284.18C98.5472 284.167 98.2005 284.153 97.8138 284.14C97.7738 284.407 97.8072 284.64 97.9138 284.84C98.0338 285.027 98.1938 285.187 98.3938 285.32C98.5938 285.44 98.8205 285.533 99.0738 285.6C99.3272 285.667 99.5738 285.707 99.8138 285.72C100.267 285.747 100.7 285.713 101.114 285.62C101.527 285.513 101.954 285.393 102.394 285.26ZM101.534 281.38C101.28 281.087 101.014 280.873 100.734 280.74C100.52 280.647 100.294 280.607 100.054 280.62C99.8272 280.62 99.6072 280.653 99.3938 280.72C99.0072 280.813 98.6805 281.013 98.4138 281.32C98.3872 281.347 98.3405 281.413 98.2738 281.52C98.2072 281.613 98.1405 281.713 98.0738 281.82C98.0205 281.927 97.9805 282.027 97.9538 282.12C97.9272 282.213 97.9405 282.26 97.9938 282.26H101.914C101.9 282.073 101.867 281.92 101.814 281.8C101.76 281.667 101.667 281.527 101.534 281.38Z" fill="white" fill-opacity="0.68"/>
<rect x="353" y="804" width="309" height="57" rx="20" transform="rotate(180 353 804)" fill="#00057A" fill-opacity="0.51"/>
<path d="M151.403 791.624C149.323 791.624 147.411 791.256 145.667 790.52C143.923 789.768 142.515 788.656 141.443 787.184C140.387 785.712 139.835 783.872 139.787 781.664H144.251C144.251 782.992 144.571 784.08 145.211 784.928C145.867 785.776 146.731 786.408 147.803 786.824C148.875 787.224 150.059 787.424 151.355 787.424C152.667 787.424 153.827 787.224 154.835 786.824C155.843 786.424 156.619 785.888 157.163 785.216C157.723 784.544 158.003 783.776 158.003 782.912C158.003 781.744 157.643 780.808 156.923 780.104C156.203 779.384 155.107 778.776 153.635 778.28L147.947 776.168C145.499 775.256 143.635 774.208 142.355 773.024C141.075 771.824 140.435 770.16 140.435 768.032C140.435 765.616 141.379 763.656 143.267 762.152C145.155 760.632 147.811 759.872 151.235 759.872C154.483 759.872 157.003 760.624 158.795 762.128C160.603 763.632 161.635 765.68 161.891 768.272H157.403C157.179 766.96 156.563 765.92 155.555 765.152C154.563 764.384 153.123 764 151.235 764C149.411 764 147.987 764.4 146.963 765.2C145.939 765.984 145.427 766.976 145.427 768.176C145.427 769.168 145.747 769.96 146.387 770.552C147.043 771.144 148.059 771.68 149.435 772.16L155.915 774.536C158.139 775.32 159.875 776.376 161.123 777.704C162.371 779.032 162.995 780.72 162.995 782.768C162.995 784.496 162.547 786.024 161.651 787.352C160.755 788.68 159.443 789.728 157.715 790.496C155.987 791.248 153.883 791.624 151.403 791.624ZM170.851 791V760.424H190.051V764.36H175.411V773.672H189.187V777.608H175.411V787.016H190.051V791H170.851ZM198.296 760.424H203.504L218.312 784.136H217.952V760.424H222.512V791H217.664L202.136 766.232H202.856V791H198.296V760.424ZM231.883 760.424H241.243C244.347 760.424 247.043 761.056 249.331 762.32C251.635 763.568 253.427 765.336 254.707 767.624C255.987 769.912 256.627 772.608 256.627 775.712C256.627 778.8 255.987 781.488 254.707 783.776C253.427 786.064 251.635 787.84 249.331 789.104C247.043 790.368 244.347 791 241.243 791H231.883V760.424ZM236.443 764.528V786.968H241.243C243.419 786.968 245.283 786.48 246.835 785.504C248.403 784.528 249.611 783.192 250.459 781.496C251.307 779.8 251.731 777.872 251.731 775.712C251.731 773.552 251.307 771.632 250.459 769.952C249.611 768.256 248.403 766.928 246.835 765.968C245.283 765.008 243.419 764.528 241.243 764.528H236.443Z" fill="white"/>
<rect x="351" y="680" width="309" height="312" rx="20" transform="rotate(180 351 680)" fill="black" fill-opacity="0.24"/>
<path d="M71.9605 407.56C71.9471 407.72 71.9271 407.887 71.9005 408.06C71.8738 408.233 71.8271 408.393 71.7605 408.54C71.6938 408.7 71.6071 408.82 71.5005 408.9C71.3538 409.033 71.1805 409.107 70.9805 409.12C70.7938 409.187 70.6138 409.207 70.4405 409.18C70.2671 409.153 70.1071 409.107 69.9605 409.04C69.7738 408.92 69.6338 408.78 69.5405 408.62C69.4605 408.447 69.4005 408.267 69.3605 408.08C69.3205 407.893 69.3005 407.7 69.3005 407.5C69.3005 407.3 69.3005 407.113 69.3005 406.94V405.38L69.2805 402.32C69.2805 402.107 69.2805 401.94 69.2805 401.82C69.2805 401.7 69.2805 401.593 69.2805 401.5C69.2805 401.393 69.2738 401.28 69.2605 401.16C69.2605 401.027 69.2605 400.84 69.2605 400.6C69.2605 400.56 69.2605 400.493 69.2605 400.4C69.2738 400.293 69.2671 400.02 69.2405 399.58C68.7205 400.447 68.2871 401.147 67.9405 401.68C67.6071 402.2 67.3205 402.607 67.0805 402.9C66.8538 403.18 66.6538 403.373 66.4805 403.48C66.3071 403.573 66.1271 403.627 65.9405 403.64C65.8338 403.653 65.7271 403.633 65.6205 403.58C65.5138 403.527 65.4071 403.46 65.3005 403.38C65.2071 403.3 65.1138 403.22 65.0205 403.14C64.9405 403.047 64.8738 402.96 64.8205 402.88C64.5005 402.48 64.1405 402 63.7405 401.44C63.3405 400.88 62.9271 400.2 62.5005 399.4C62.5005 399.413 62.4938 399.633 62.4805 400.06C62.4805 400.487 62.4805 401.02 62.4805 401.66C62.4805 402.287 62.4738 402.967 62.4605 403.7C62.4605 404.42 62.4538 405.093 62.4405 405.72C62.4405 406.347 62.4338 406.873 62.4205 407.3C62.4071 407.713 62.3938 407.92 62.3805 407.92C62.3805 408.147 62.3271 408.36 62.2205 408.56C62.1138 408.747 61.9671 408.9 61.7805 409.02C61.6071 409.14 61.4005 409.207 61.1605 409.22C60.9205 409.233 60.6605 409.167 60.3805 409.02C60.2071 408.913 60.0738 408.76 59.9805 408.56C59.9005 408.36 59.8471 408.173 59.8205 408C59.8071 407.813 59.7938 407.633 59.7805 407.46C59.7805 407.287 59.7805 407.107 59.7805 406.92L59.8005 405.36L59.8205 402.28V399.6C59.8205 398.44 59.8605 397.3 59.9405 396.18C59.9405 396.033 59.9538 395.9 59.9805 395.78C60.0205 395.647 60.0671 395.52 60.1205 395.4C60.2271 395.187 60.3671 395.027 60.5405 394.92C60.7405 394.8 60.9538 394.74 61.1805 394.74C61.2738 394.74 61.3605 394.747 61.4405 394.76C61.5338 394.76 61.6205 394.767 61.7005 394.78C61.9671 394.833 62.1938 394.993 62.3805 395.26C62.5805 395.513 62.7671 395.733 62.9405 395.92C63.0471 396.04 63.1605 396.187 63.2805 396.36C63.4005 396.533 63.5205 396.713 63.6405 396.9C63.7605 397.087 63.8738 397.267 63.9805 397.44C64.0871 397.613 64.1805 397.767 64.2605 397.9C64.6071 398.46 64.9138 398.973 65.1805 399.44C65.4605 399.907 65.7205 400.307 65.9605 400.64C66.0005 400.6 66.0471 400.547 66.1005 400.48C66.1538 400.4 66.2071 400.32 66.2605 400.24C66.3271 400.147 66.3805 400.06 66.4205 399.98C66.4738 399.9 66.5138 399.833 66.5405 399.78C66.6738 399.567 66.8071 399.36 66.9405 399.16C67.0738 398.947 67.2138 398.727 67.3605 398.5C67.5205 398.26 67.6805 398 67.8405 397.72C68.0138 397.44 68.2138 397.12 68.4405 396.76C68.5338 396.6 68.6538 396.407 68.8005 396.18C68.9471 395.953 69.1138 395.733 69.3005 395.52C69.4871 395.307 69.6805 395.127 69.8805 394.98C70.0938 394.82 70.3071 394.74 70.5205 394.74C70.6271 394.74 70.7205 394.747 70.8005 394.76C70.8805 394.76 70.9605 394.767 71.0405 394.78C71.2005 394.793 71.3538 394.867 71.5005 395C71.6071 395.107 71.6871 395.22 71.7405 395.34C71.7938 395.513 71.8271 395.66 71.8405 395.78C71.8538 395.873 71.8605 395.96 71.8605 396.04C71.8738 396.12 71.8805 396.2 71.8805 396.28C71.8805 397.027 71.8871 397.767 71.9005 398.5C71.9138 399.233 71.9205 399.973 71.9205 400.72C71.9205 401.627 71.9205 402.56 71.9205 403.52C71.9338 404.48 71.9405 405.413 71.9405 406.32C71.9405 406.507 71.9471 406.707 71.9605 406.92C71.9738 407.133 71.9738 407.347 71.9605 407.56ZM75.9291 400.58C76.3291 400.38 76.7491 400.24 77.1891 400.16C77.6291 400.067 78.0624 400.047 78.4891 400.1C78.9291 400.14 79.3491 400.253 79.7491 400.44C80.1491 400.613 80.5224 400.867 80.8691 401.2C81.2157 401.547 81.4824 401.927 81.6691 402.34C81.8557 402.753 81.9891 403.213 82.0691 403.72C82.1224 404.067 82.2091 404.387 82.3291 404.68C82.4491 404.973 82.5757 405.267 82.7091 405.56C82.8557 405.853 82.9891 406.147 83.1091 406.44C83.2424 406.733 83.3491 407.04 83.4291 407.36C83.4957 407.667 83.4691 407.967 83.3491 408.26C83.2424 408.54 83.0157 408.713 82.6691 408.78C82.4691 408.82 82.2757 408.807 82.0891 408.74C81.9157 408.66 81.7557 408.553 81.6091 408.42C81.4624 408.273 81.3291 408.12 81.2091 407.96C81.1024 407.787 81.0024 407.627 80.9091 407.48C80.6024 407.88 80.2691 408.193 79.9091 408.42C79.5491 408.633 79.1157 408.773 78.6091 408.84C78.1824 408.893 77.7757 408.907 77.3891 408.88C77.0024 408.853 76.5891 408.78 76.1491 408.66C75.5757 408.513 75.1024 408.26 74.7291 407.9C74.3691 407.527 74.0891 407.1 73.8891 406.62C73.7024 406.127 73.6024 405.6 73.5891 405.04C73.5757 404.48 73.6424 403.927 73.7891 403.38C73.9757 402.66 74.2557 402.073 74.6291 401.62C75.0024 401.167 75.4357 400.82 75.9291 400.58ZM76.4291 402.92C76.2424 403.107 76.0957 403.327 75.9891 403.58C75.8824 403.833 75.8157 404.1 75.7891 404.38C75.7757 404.66 75.8024 404.94 75.8691 405.22C75.9357 405.5 76.0424 405.747 76.1891 405.96C76.3224 406.147 76.5491 406.307 76.8691 406.44C77.1891 406.56 77.5224 406.633 77.8691 406.66C78.2691 406.687 78.6157 406.58 78.9091 406.34C79.2157 406.1 79.4424 405.8 79.5891 405.44C79.7491 405.067 79.8224 404.673 79.8091 404.26C79.7957 403.833 79.6824 403.447 79.4691 403.1C79.3091 402.847 79.0957 402.66 78.8291 402.54C78.5757 402.42 78.3024 402.36 78.0091 402.36C77.7157 402.347 77.4224 402.393 77.1291 402.5C76.8491 402.593 76.6157 402.733 76.4291 402.92ZM89.873 405.48C89.6196 405.32 89.333 405.193 89.013 405.1C88.7063 405.007 88.3863 404.92 88.053 404.84C87.733 404.76 87.4196 404.673 87.113 404.58C86.8063 404.473 86.5263 404.327 86.273 404.14C85.7263 403.727 85.4063 403.22 85.313 402.62C85.233 402.007 85.3663 401.393 85.713 400.78C85.8996 400.46 86.1463 400.2 86.453 400C86.7596 399.787 87.093 399.627 87.453 399.52C87.8263 399.4 88.2063 399.333 88.593 399.32C88.9796 399.307 89.3463 399.327 89.693 399.38C89.9196 399.42 90.1596 399.48 90.413 399.56C90.6663 399.627 90.8996 399.72 91.113 399.84C91.3396 399.96 91.5396 400.113 91.713 400.3C91.8996 400.473 92.033 400.693 92.113 400.96C92.1663 401.133 92.173 401.3 92.133 401.46C92.1063 401.62 92.0396 401.753 91.933 401.86C91.8396 401.967 91.713 402.047 91.553 402.1C91.4063 402.153 91.2463 402.167 91.073 402.14C90.873 402.1 90.6863 402.04 90.513 401.96C90.3396 401.88 90.1663 401.793 89.993 401.7C89.8196 401.607 89.6396 401.527 89.453 401.46C89.2796 401.393 89.093 401.36 88.893 401.36C88.5863 401.347 88.333 401.4 88.133 401.52C87.933 401.64 87.793 401.787 87.713 401.96C87.6463 402.133 87.653 402.32 87.733 402.52C87.8263 402.72 88.013 402.893 88.293 403.04C88.5463 403.173 88.8263 403.28 89.133 403.36C89.4396 403.44 89.7396 403.52 90.033 403.6C90.3396 403.68 90.633 403.773 90.913 403.88C91.2063 403.987 91.4663 404.133 91.693 404.32C92.133 404.68 92.3996 405.1 92.493 405.58C92.5996 406.06 92.573 406.533 92.413 407C92.253 407.467 91.973 407.88 91.573 408.24C91.1863 408.6 90.7263 408.84 90.193 408.96C89.8063 409.04 89.3863 409.08 88.933 409.08C88.493 409.08 88.053 409.033 87.613 408.94C87.1863 408.847 86.773 408.7 86.373 408.5C85.9863 408.3 85.6596 408.047 85.393 407.74C85.2063 407.527 85.1063 407.287 85.093 407.02C85.093 406.74 85.1463 406.5 85.253 406.3C85.373 406.087 85.5396 405.94 85.753 405.86C85.9663 405.78 86.2063 405.827 86.473 406C86.6863 406.147 86.9396 406.293 87.233 406.44C87.5263 406.573 87.8196 406.68 88.113 406.76C88.4063 406.84 88.6863 406.88 88.953 406.88C89.233 406.88 89.473 406.82 89.673 406.7C89.9663 406.513 90.1196 406.3 90.133 406.06C90.1463 405.807 90.0596 405.613 89.873 405.48ZM98.955 405.48C98.7017 405.32 98.415 405.193 98.095 405.1C97.7883 405.007 97.4683 404.92 97.135 404.84C96.815 404.76 96.5017 404.673 96.195 404.58C95.8883 404.473 95.6083 404.327 95.355 404.14C94.8083 403.727 94.4883 403.22 94.395 402.62C94.315 402.007 94.4483 401.393 94.795 400.78C94.9817 400.46 95.2283 400.2 95.535 400C95.8417 399.787 96.175 399.627 96.535 399.52C96.9083 399.4 97.2883 399.333 97.675 399.32C98.0617 399.307 98.4283 399.327 98.775 399.38C99.0017 399.42 99.2417 399.48 99.495 399.56C99.7483 399.627 99.9817 399.72 100.195 399.84C100.422 399.96 100.622 400.113 100.795 400.3C100.982 400.473 101.115 400.693 101.195 400.96C101.248 401.133 101.255 401.3 101.215 401.46C101.188 401.62 101.122 401.753 101.015 401.86C100.922 401.967 100.795 402.047 100.635 402.1C100.488 402.153 100.328 402.167 100.155 402.14C99.955 402.1 99.7683 402.04 99.595 401.96C99.4217 401.88 99.2483 401.793 99.075 401.7C98.9017 401.607 98.7217 401.527 98.535 401.46C98.3617 401.393 98.175 401.36 97.975 401.36C97.6683 401.347 97.415 401.4 97.215 401.52C97.015 401.64 96.875 401.787 96.795 401.96C96.7283 402.133 96.735 402.32 96.815 402.52C96.9083 402.72 97.095 402.893 97.375 403.04C97.6283 403.173 97.9083 403.28 98.215 403.36C98.5217 403.44 98.8217 403.52 99.115 403.6C99.4217 403.68 99.715 403.773 99.995 403.88C100.288 403.987 100.548 404.133 100.775 404.32C101.215 404.68 101.482 405.1 101.575 405.58C101.682 406.06 101.655 406.533 101.495 407C101.335 407.467 101.055 407.88 100.655 408.24C100.268 408.6 99.8083 408.84 99.275 408.96C98.8883 409.04 98.4683 409.08 98.015 409.08C97.575 409.08 97.135 409.033 96.695 408.94C96.2683 408.847 95.855 408.7 95.455 408.5C95.0683 408.3 94.7417 408.047 94.475 407.74C94.2883 407.527 94.1883 407.287 94.175 407.02C94.175 406.74 94.2283 406.5 94.335 406.3C94.455 406.087 94.6217 405.94 94.835 405.86C95.0483 405.78 95.2883 405.827 95.555 406C95.7683 406.147 96.0217 406.293 96.315 406.44C96.6083 406.573 96.9017 406.68 97.195 406.76C97.4883 406.84 97.7683 406.88 98.035 406.88C98.315 406.88 98.555 406.82 98.755 406.7C99.0483 406.513 99.2017 406.3 99.215 406.06C99.2283 405.807 99.1417 405.613 98.955 405.48ZM105.597 400.58C105.997 400.38 106.417 400.24 106.857 400.16C107.297 400.067 107.73 400.047 108.157 400.1C108.597 400.14 109.017 400.253 109.417 400.44C109.817 400.613 110.19 400.867 110.537 401.2C110.884 401.547 111.15 401.927 111.337 402.34C111.524 402.753 111.657 403.213 111.737 403.72C111.79 404.067 111.877 404.387 111.997 404.68C112.117 404.973 112.244 405.267 112.377 405.56C112.524 405.853 112.657 406.147 112.777 406.44C112.91 406.733 113.017 407.04 113.097 407.36C113.164 407.667 113.137 407.967 113.017 408.26C112.91 408.54 112.684 408.713 112.337 408.78C112.137 408.82 111.944 408.807 111.757 408.74C111.584 408.66 111.424 408.553 111.277 408.42C111.13 408.273 110.997 408.12 110.877 407.96C110.77 407.787 110.67 407.627 110.577 407.48C110.27 407.88 109.937 408.193 109.577 408.42C109.217 408.633 108.784 408.773 108.277 408.84C107.85 408.893 107.444 408.907 107.057 408.88C106.67 408.853 106.257 408.78 105.817 408.66C105.244 408.513 104.77 408.26 104.397 407.9C104.037 407.527 103.757 407.1 103.557 406.62C103.37 406.127 103.27 405.6 103.257 405.04C103.244 404.48 103.31 403.927 103.457 403.38C103.644 402.66 103.924 402.073 104.297 401.62C104.67 401.167 105.104 400.82 105.597 400.58ZM106.097 402.92C105.91 403.107 105.764 403.327 105.657 403.58C105.55 403.833 105.484 404.1 105.457 404.38C105.444 404.66 105.47 404.94 105.537 405.22C105.604 405.5 105.71 405.747 105.857 405.96C105.99 406.147 106.217 406.307 106.537 406.44C106.857 406.56 107.19 406.633 107.537 406.66C107.937 406.687 108.284 406.58 108.577 406.34C108.884 406.1 109.11 405.8 109.257 405.44C109.417 405.067 109.49 404.673 109.477 404.26C109.464 403.833 109.35 403.447 109.137 403.1C108.977 402.847 108.764 402.66 108.497 402.54C108.244 402.42 107.97 402.36 107.677 402.36C107.384 402.347 107.09 402.393 106.797 402.5C106.517 402.593 106.284 402.733 106.097 402.92ZM123.061 405.22C123.061 405.647 123.048 406.107 123.021 406.6C123.008 407.093 122.988 407.553 122.961 407.98C122.961 408.38 122.941 408.78 122.901 409.18C122.874 409.527 122.821 409.9 122.741 410.3C122.661 410.713 122.548 411.093 122.401 411.44C122.214 411.893 121.961 412.28 121.641 412.6C121.321 412.933 120.908 413.173 120.401 413.32C119.974 413.427 119.574 413.493 119.201 413.52C118.828 413.56 118.428 413.553 118.001 413.5C117.721 413.46 117.421 413.38 117.101 413.26C116.781 413.153 116.481 413.013 116.201 412.84C115.921 412.667 115.674 412.46 115.461 412.22C115.248 411.993 115.101 411.733 115.021 411.44C114.928 411.08 114.921 410.767 115.001 410.5C115.094 410.233 115.234 410.04 115.421 409.92C115.608 409.8 115.828 409.78 116.081 409.86C116.334 409.94 116.574 410.147 116.801 410.48C116.961 410.72 117.194 410.913 117.501 411.06C117.808 411.207 118.134 411.293 118.481 411.32C118.828 411.347 119.161 411.3 119.481 411.18C119.814 411.073 120.074 410.88 120.261 410.6C120.394 410.4 120.488 410.113 120.541 409.74C120.608 409.367 120.648 409 120.661 408.64C119.981 408.92 119.281 409.027 118.561 408.96C117.854 408.88 117.208 408.66 116.621 408.3C116.048 407.927 115.581 407.433 115.221 406.82C114.874 406.193 114.728 405.487 114.781 404.7C114.821 404.02 114.961 403.38 115.201 402.78C115.454 402.18 115.868 401.68 116.441 401.28C116.908 400.96 117.434 400.753 118.021 400.66C118.608 400.553 119.174 400.5 119.721 400.5C120.041 400.5 120.354 400.5 120.661 400.5C120.981 400.5 121.274 400.54 121.541 400.62C121.808 400.7 122.048 400.833 122.261 401.02C122.474 401.207 122.634 401.48 122.741 401.84C122.914 402.4 123.008 402.953 123.021 403.5C123.048 404.047 123.061 404.62 123.061 405.22ZM119.201 406.88C119.334 406.88 119.461 406.867 119.581 406.84C119.714 406.813 119.841 406.78 119.961 406.74C120.188 406.66 120.354 406.553 120.461 406.42C120.581 406.287 120.661 406.14 120.701 405.98C120.741 405.807 120.754 405.62 120.741 405.42C120.741 405.22 120.741 405.013 120.741 404.8C120.741 404.627 120.734 404.433 120.721 404.22C120.721 404.007 120.708 403.807 120.681 403.62C120.654 403.42 120.614 403.247 120.561 403.1C120.508 402.953 120.428 402.86 120.321 402.82C120.134 402.767 119.921 402.733 119.681 402.72C119.441 402.693 119.201 402.693 118.961 402.72C118.721 402.733 118.488 402.78 118.261 402.86C118.048 402.927 117.868 403.02 117.721 403.14C117.521 403.313 117.368 403.527 117.261 403.78C117.154 404.033 117.088 404.3 117.061 404.58C117.048 404.86 117.068 405.133 117.121 405.4C117.188 405.667 117.301 405.907 117.461 406.12C117.648 406.387 117.901 406.58 118.221 406.7C118.541 406.82 118.868 406.88 119.201 406.88ZM131.603 406.26C131.763 406.22 131.923 406.193 132.083 406.18C132.256 406.167 132.409 406.187 132.543 406.24C132.689 406.293 132.809 406.387 132.903 406.52C132.996 406.64 133.043 406.813 133.043 407.04C133.043 407.2 133.003 407.353 132.923 407.5C132.843 407.647 132.743 407.78 132.623 407.9C132.503 408.02 132.369 408.127 132.223 408.22C132.076 408.3 131.936 408.367 131.803 408.42C131.416 408.593 130.969 408.727 130.463 408.82C129.969 408.913 129.456 408.947 128.923 408.92C128.203 408.893 127.509 408.753 126.843 408.5C126.189 408.233 125.676 407.8 125.303 407.2C124.956 406.613 124.749 405.96 124.683 405.24C124.616 404.52 124.649 403.84 124.783 403.2C124.929 402.427 125.176 401.8 125.523 401.32C125.883 400.827 126.309 400.433 126.803 400.14C127.403 399.793 128.076 399.613 128.823 399.6C129.569 399.587 130.283 399.733 130.963 400.04C131.416 400.24 131.823 400.513 132.183 400.86C132.543 401.193 132.816 401.6 133.003 402.08C133.056 402.2 133.096 402.347 133.123 402.52C133.163 402.693 133.189 402.88 133.203 403.08C133.216 403.267 133.216 403.453 133.203 403.64C133.189 403.827 133.156 403.993 133.103 404.14C133.023 404.38 132.923 404.567 132.803 404.7C132.683 404.833 132.529 404.933 132.343 405C132.156 405.067 131.929 405.113 131.663 405.14C131.409 405.153 131.103 405.167 130.743 405.18C130.423 405.193 130.123 405.2 129.843 405.2C129.563 405.2 129.276 405.2 128.983 405.2C128.689 405.187 128.383 405.18 128.063 405.18C127.756 405.167 127.409 405.153 127.023 405.14C126.983 405.407 127.016 405.64 127.123 405.84C127.243 406.027 127.403 406.187 127.603 406.32C127.803 406.44 128.029 406.533 128.283 406.6C128.536 406.667 128.783 406.707 129.023 406.72C129.476 406.747 129.909 406.713 130.323 406.62C130.736 406.513 131.163 406.393 131.603 406.26ZM130.743 402.38C130.489 402.087 130.223 401.873 129.943 401.74C129.729 401.647 129.503 401.607 129.263 401.62C129.036 401.62 128.816 401.653 128.603 401.72C128.216 401.813 127.889 402.013 127.623 402.32C127.596 402.347 127.549 402.413 127.483 402.52C127.416 402.613 127.349 402.713 127.283 402.82C127.229 402.927 127.189 403.027 127.163 403.12C127.136 403.213 127.149 403.26 127.203 403.26H131.123C131.109 403.073 131.076 402.92 131.023 402.8C130.969 402.667 130.876 402.527 130.743 402.38Z" fill="white" fill-opacity="0.68"/>
<path opacity="0.4" d="M507.984 610.595C501.457 604.638 491.337 605.1 485.38 611.627C479.423 618.154 479.886 628.274 486.413 634.231C492.94 640.188 503.06 639.725 509.017 633.198C514.973 626.671 514.511 616.551 507.984 610.595ZM397.046 729.008C397.122 730.663 398.525 731.943 400.18 731.868L427.152 730.635C428.807 730.56 430.088 729.157 430.012 727.501C429.936 725.846 428.533 724.566 426.878 724.642L402.903 725.737L401.808 701.762C401.732 700.107 400.329 698.826 398.674 698.902C397.019 698.978 395.738 700.381 395.814 702.036L397.046 729.008ZM494.982 620.391L397.827 726.848L402.259 730.893L499.414 624.435L494.982 620.391Z" fill="#FF01B8" fill-opacity="0.5"/>
<path opacity="0.4" d="M340.793 558.268C334.266 552.311 324.146 552.773 318.189 559.3C312.233 565.827 312.695 575.948 319.222 581.904C325.749 587.861 335.869 587.399 341.826 580.871C347.783 574.344 347.32 564.224 340.793 558.268ZM229.856 676.681C229.931 678.336 231.334 679.616 232.989 679.541L259.961 678.308C261.616 678.233 262.897 676.83 262.821 675.175C262.746 673.519 261.343 672.239 259.687 672.315L235.712 673.41L234.617 649.435C234.541 647.78 233.138 646.499 231.483 646.575C229.828 646.651 228.548 648.054 228.623 649.709L229.856 676.681ZM327.792 568.064L230.637 674.521L235.068 678.566L332.224 572.108L327.792 568.064Z" fill="#FF01B8" fill-opacity="0.5"/>
<path opacity="0.4" d="M137.867 578.688C131.34 572.731 121.22 573.194 115.263 579.721C109.306 586.248 109.769 596.368 116.296 602.325C122.823 608.281 132.943 607.819 138.9 601.292C144.856 594.765 144.394 584.645 137.867 578.688ZM26.9293 697.101C27.005 698.756 28.408 700.037 30.0631 699.961L57.035 698.729C58.6901 698.653 59.9706 697.25 59.895 695.595C59.8193 693.94 58.4163 692.659 56.7612 692.735L32.7862 693.83L31.6908 669.855C31.6152 668.2 30.2121 666.92 28.557 666.995C26.9019 667.071 25.6214 668.474 25.6971 670.129L26.9293 697.101ZM124.865 588.484L27.7103 694.942L32.1421 698.986L129.297 592.529L124.865 588.484Z" fill="#FF01B8" fill-opacity="0.5"/>
<path opacity="0.4" d="M340.793 313.225C334.266 307.268 324.146 307.73 318.189 314.257C312.233 320.784 312.695 330.905 319.222 336.861C325.749 342.818 335.869 342.356 341.826 335.829C347.783 329.301 347.32 319.181 340.793 313.225ZM229.856 431.638C229.931 433.293 231.334 434.573 232.989 434.498L259.961 433.265C261.616 433.19 262.897 431.787 262.821 430.132C262.746 428.476 261.343 427.196 259.687 427.272L235.712 428.367L234.617 404.392C234.541 402.737 233.138 401.456 231.483 401.532C229.828 401.608 228.548 403.011 228.623 404.666L229.856 431.638ZM327.792 323.021L230.637 429.479L235.068 433.523L332.224 327.065L327.792 323.021Z" fill="#FF01B8" fill-opacity="0.5"/>
<path opacity="0.4" d="M459.486 505.941C452.959 499.984 442.839 500.446 436.882 506.973C430.925 513.501 431.388 523.621 437.915 529.577C444.442 535.534 454.562 535.072 460.519 528.545C466.475 522.018 466.013 511.897 459.486 505.941ZM348.548 624.354C348.624 626.009 350.027 627.289 351.682 627.214L378.654 625.981C380.309 625.906 381.59 624.503 381.514 622.848C381.438 621.193 380.035 619.912 378.38 619.988L354.405 621.083L353.31 597.108C353.234 595.453 351.831 594.173 350.176 594.248C348.521 594.324 347.24 595.727 347.316 597.382L348.548 624.354ZM446.484 515.737L349.329 622.195L353.761 626.239L450.916 519.781L446.484 515.737Z" fill="#FF01B8" fill-opacity="0.5"/>
<path opacity="0.4" d="M6.41159 148.587C-0.115463 142.63 -10.2355 143.092 -16.1922 149.619C-22.1489 156.146 -21.6866 166.266 -15.1595 172.223C-8.63246 178.18 1.48762 177.717 7.44432 171.19C13.401 164.663 12.9387 154.543 6.41159 148.587ZM-104.526 267C-104.45 268.655 -103.047 269.935 -101.392 269.86L-74.4203 268.627C-72.7652 268.552 -71.4848 267.149 -71.5604 265.493C-71.636 263.838 -73.0391 262.558 -74.6942 262.633L-98.6692 263.729L-99.7645 239.754C-99.8402 238.099 -101.243 236.818 -102.898 236.894C-104.553 236.97 -105.834 238.373 -105.758 240.028L-104.526 267ZM-6.58989 158.382L-103.745 264.84L-99.3132 268.885L-2.15803 162.427L-6.58989 158.382Z" fill="#FF01B8" fill-opacity="0.5"/>
<path opacity="0.4" d="M186.365 110.298C179.838 104.342 169.718 104.804 163.761 111.331C157.805 117.858 158.267 127.978 164.794 133.935C171.321 139.892 181.441 139.429 187.398 132.902C193.354 126.375 192.892 116.255 186.365 110.298ZM75.4275 228.711C75.5031 230.367 76.9061 231.647 78.5612 231.571L105.533 230.339C107.188 230.264 108.469 228.86 108.393 227.205C108.317 225.55 106.914 224.27 105.259 224.345L81.2843 225.441L80.1889 201.466C80.1133 199.811 78.7102 198.53 77.0551 198.606C75.4 198.681 74.1195 200.084 74.1952 201.74L75.4275 228.711ZM173.364 120.094L76.2084 226.552L80.6403 230.597L177.795 124.139L173.364 120.094Z" fill="#FF01B8" fill-opacity="0.5"/>
<path opacity="0.4" d="M437.789 68.1817C431.262 62.225 421.142 62.6874 415.186 69.2144C409.229 75.7415 409.691 85.8616 416.218 91.8183C422.745 97.775 432.865 97.3126 438.822 90.7856C444.779 84.2585 444.316 74.1384 437.789 68.1817ZM326.852 186.595C326.927 188.25 328.33 189.53 329.986 189.455L356.957 188.222C358.613 188.147 359.893 186.744 359.817 185.089C359.742 183.434 358.339 182.153 356.684 182.229L332.709 183.324L331.613 159.349C331.538 157.694 330.135 156.413 328.479 156.489C326.824 156.565 325.544 157.968 325.619 159.623L326.852 186.595ZM424.788 77.9777L327.633 184.436L332.065 188.48L429.22 82.0223L424.788 77.9777Z" fill="#FF01B8" fill-opacity="0.5"/>
<path opacity="0.4" d="M321.649 435.746C315.122 429.789 305.002 430.252 299.045 436.779C293.089 443.306 293.551 453.426 300.078 459.383C306.605 465.339 316.725 464.877 322.682 458.35C328.639 451.823 328.176 441.703 321.649 435.746ZM210.712 554.159C210.787 555.814 212.19 557.095 213.845 557.019L240.817 555.787C242.472 555.711 243.753 554.308 243.677 552.653C243.602 550.998 242.199 549.718 240.543 549.793L216.568 550.889L215.473 526.914C215.397 525.258 213.994 523.978 212.339 524.054C210.684 524.129 209.404 525.532 209.479 527.187L210.712 554.159ZM308.648 445.542L211.493 552L215.924 556.045L313.08 449.587L308.648 445.542Z" fill="#FF01B8" fill-opacity="0.5"/>
<path opacity="0.4" d="M176.155 453.614C169.628 447.657 159.508 448.12 153.551 454.647C147.594 461.174 148.057 471.294 154.584 477.251C161.111 483.207 171.231 482.745 177.188 476.218C183.144 469.691 182.682 459.571 176.155 453.614ZM65.2173 572.027C65.2929 573.682 66.696 574.963 68.3511 574.887L95.323 573.655C96.9781 573.579 98.2585 572.176 98.1829 570.521C98.1073 568.866 96.7043 567.585 95.0491 567.661L71.0741 568.756L69.9788 544.781C69.9031 543.126 68.5001 541.846 66.845 541.921C65.1898 541.997 63.9094 543.4 63.985 545.055L65.2173 572.027ZM163.153 463.41L65.9983 569.868L70.4301 573.912L167.585 467.455L163.153 463.41Z" fill="#FF01B8" fill-opacity="0.5"/>
<path opacity="0.4" d="M137.867 398.734C131.34 392.778 121.22 393.24 115.263 399.767C109.306 406.294 109.769 416.414 116.296 422.371C122.823 428.328 132.943 427.865 138.9 421.338C144.856 414.811 144.394 404.691 137.867 398.734ZM26.9293 517.148C27.005 518.803 28.408 520.083 30.0631 520.007L57.035 518.775C58.6901 518.7 59.9706 517.296 59.895 515.641C59.8193 513.986 58.4163 512.706 56.7612 512.781L32.7862 513.877L31.6908 489.902C31.6152 488.247 30.2121 486.966 28.557 487.042C26.9019 487.117 25.6214 488.521 25.6971 490.176L26.9293 517.148ZM124.865 408.53L27.7103 514.988L32.1421 519.033L129.297 412.575L124.865 408.53Z" fill="#FF01B8" fill-opacity="0.5"/>
<path opacity="0.4" d="M283.361 207.295C276.834 201.338 266.714 201.8 260.757 208.327C254.801 214.854 255.263 224.974 261.79 230.931C268.317 236.888 278.437 236.426 284.394 229.898C290.351 223.371 289.888 213.251 283.361 207.295ZM172.424 325.708C172.499 327.363 173.902 328.643 175.557 328.568L202.529 327.335C204.184 327.26 205.465 325.857 205.389 324.202C205.314 322.546 203.911 321.266 202.255 321.342L178.28 322.437L177.185 298.462C177.109 296.807 175.706 295.526 174.051 295.602C172.396 295.678 171.116 297.081 171.191 298.736L172.424 325.708ZM270.36 217.091L173.205 323.548L177.636 327.593L274.792 221.135L270.36 217.091Z" fill="#FF01B8" fill-opacity="0.5"/>
<path opacity="0.4" d="M158.287 254.516C151.76 248.56 141.64 249.022 135.683 255.549C129.727 262.076 130.189 272.196 136.716 278.153C143.243 284.11 153.363 283.647 159.32 277.12C165.277 270.593 164.814 260.473 158.287 254.516ZM47.3496 372.929C47.4252 374.585 48.8283 375.865 50.4834 375.789L77.4553 374.557C79.1104 374.482 80.3908 373.078 80.3152 371.423C80.2396 369.768 78.8365 368.488 77.1814 368.563L53.2064 369.659L52.1111 345.684C52.0354 344.029 50.6324 342.748 48.9773 342.824C47.3221 342.899 46.0417 344.302 46.1173 345.958L47.3496 372.929ZM145.286 264.312L48.1306 370.77L52.5624 374.815L149.718 268.357L145.286 264.312Z" fill="#FF01B8" fill-opacity="0.5"/>
<path opacity="0.4" d="M206.785 631.015C200.258 625.058 190.138 625.521 184.181 632.048C178.225 638.575 178.687 648.695 185.214 654.651C191.741 660.608 201.861 660.146 207.818 653.619C213.775 647.092 213.312 636.972 206.785 631.015ZM95.8477 749.428C95.9233 751.083 97.3264 752.363 98.9815 752.288L125.953 751.056C127.608 750.98 128.889 749.577 128.813 747.922C128.738 746.267 127.335 744.986 125.68 745.062L101.705 746.157L100.609 722.182C100.534 720.527 99.1305 719.247 97.4754 719.322C95.8202 719.398 94.5398 720.801 94.6154 722.456L95.8477 749.428ZM193.784 640.811L96.6287 747.269L101.061 751.313L198.216 644.855L193.784 640.811Z" fill="#FF01B8" fill-opacity="0.5"/>
<path opacity="0.4" d="M331.859 664.198C325.332 658.241 315.212 658.703 309.255 665.23C303.299 671.757 303.761 681.878 310.288 687.834C316.815 693.791 326.935 693.329 332.892 686.802C338.849 680.274 338.386 670.154 331.859 664.198ZM220.922 782.611C220.997 784.266 222.4 785.546 224.056 785.471L251.027 784.238C252.683 784.163 253.963 782.76 253.887 781.105C253.812 779.45 252.409 778.169 250.754 778.245L226.779 779.34L225.683 755.365C225.608 753.71 224.205 752.429 222.549 752.505C220.894 752.581 219.614 753.984 219.689 755.639L220.922 782.611ZM318.858 673.994L221.703 780.452L226.135 784.496L323.29 678.038L318.858 673.994Z" fill="#FF01B8" fill-opacity="0.5"/>
<path opacity="0.4" d="M486.287 198.361C479.76 192.404 469.64 192.866 463.684 199.394C457.727 205.921 458.189 216.041 464.716 221.997C471.243 227.954 481.363 227.492 487.32 220.965C493.277 214.438 492.815 204.317 486.287 198.361ZM375.35 316.774C375.425 318.429 376.829 319.709 378.484 319.634L405.456 318.402C407.111 318.326 408.391 316.923 408.315 315.268C408.24 313.613 406.837 312.332 405.182 312.408L381.207 313.503L380.111 289.528C380.036 287.873 378.633 286.593 376.978 286.668C375.322 286.744 374.042 288.147 374.118 289.802L375.35 316.774ZM473.286 208.157L376.131 314.615L380.563 318.659L477.718 212.201L473.286 208.157Z" fill="#FF01B8" fill-opacity="0.5"/>
<path opacity="0.4" d="M492.669 254.516C486.142 248.56 476.022 249.022 470.065 255.549C464.108 262.076 464.571 272.196 471.098 278.153C477.625 284.11 487.745 283.647 493.702 277.12C499.658 270.593 499.196 260.473 492.669 254.516ZM381.731 372.929C381.807 374.585 383.21 375.865 384.865 375.789L411.837 374.557C413.492 374.482 414.772 373.078 414.697 371.423C414.621 369.768 413.218 368.488 411.563 368.563L387.588 369.659L386.493 345.684C386.417 344.029 385.014 342.748 383.359 342.824C381.704 342.899 380.423 344.302 380.499 345.958L381.731 372.929ZM479.667 264.312L382.512 370.77L386.944 374.815L484.099 268.357L479.667 264.312Z" fill="#FF01B8" fill-opacity="0.5"/>
<path opacity="0.4" d="M418.645 435.746C412.118 429.789 401.998 430.252 396.042 436.779C390.085 443.306 390.547 453.426 397.074 459.383C403.601 465.339 413.721 464.877 419.678 458.35C425.635 451.823 425.172 441.703 418.645 435.746ZM307.708 554.159C307.783 555.814 309.186 557.095 310.842 557.019L337.813 555.787C339.469 555.711 340.749 554.308 340.673 552.653C340.598 550.998 339.195 549.718 337.54 549.793L313.565 550.889L312.469 526.914C312.394 525.258 310.991 523.978 309.335 524.054C307.68 524.129 306.4 525.532 306.475 527.187L307.708 554.159ZM405.644 445.542L308.489 552L312.921 556.045L410.076 449.587L405.644 445.542Z" fill="#FF01B8" fill-opacity="0.5"/>
<path opacity="0.4" d="M273.151 453.614C266.624 447.657 256.504 448.12 250.547 454.647C244.591 461.174 245.053 471.294 251.58 477.251C258.107 483.207 268.227 482.745 274.184 476.218C280.141 469.691 279.678 459.571 273.151 453.614ZM162.213 572.027C162.289 573.682 163.692 574.963 165.347 574.887L192.319 573.655C193.974 573.579 195.255 572.176 195.179 570.521C195.103 568.866 193.7 567.585 192.045 567.661L168.07 568.756L166.975 544.781C166.899 543.126 165.496 541.846 163.841 541.921C162.186 541.997 160.906 543.4 160.981 545.055L162.213 572.027ZM260.15 463.41L162.994 569.868L167.426 573.912L264.581 467.455L260.15 463.41Z" fill="#FF01B8" fill-opacity="0.5"/>
<rect width="447" height="109" transform="matrix(-1 0 0 -1 413 92)" fill="black" fill-opacity="0.24"/>
<line x1="27.793" y1="48.7992" x2="16.6275" y2="57.593" stroke="white" stroke-width="1.5"/>
<path d="M16.3454 56.9834L27.3141 65.8227" stroke="white" stroke-width="1.5"/>
<line x1="16.6175" y1="57.4658" x2="39.6175" y2="57.4658" stroke="white" stroke-width="1.5"/>
<path d="M41.6929 81C35.2946 81 32.2498 73.1243 36.9841 68.8204L42.6612 63.6595C46.5891 60.0886 46.5891 53.9114 42.6612 50.3405L36.9841 45.1796C32.2498 40.8757 35.2946 33 41.6929 33L55 33C58.866 33 62 36.134 62 40L62 74C62 77.866 58.866 81 55 81H41.6929Z" stroke="white" stroke-width="2"/>
</g>
<defs>
<linearGradient id="paint0_linear_54_22" x1="196.5" y1="0" x2="196.5" y2="887" gradientUnits="userSpaceOnUse">
<stop stop-color="#3FEF46"/>
<stop offset="0.395" stop-color="#33C889"/>
<stop offset="0.725" stop-color="#2AE977"/>
<stop offset="1" stop-color="#00D1FF"/>
</linearGradient>
<clipPath id="clip0_54_22">
<rect width="393" height="887" fill="white"/>
</clipPath>
</defs>
</svg>
